<svg xmlns="http://www.w3.org/2000/svg" viewBox="0 0 1874 648" width="1874" height="648">
  <title>CVgen wordmark</title>
  <desc>The CVgen mark with gen in Jost Light (SIL OFL 1.1), in the thread's copper, set at the thread's tail.</desc>
  <g id="thread-under" fill="none" stroke="#B7713D" stroke-width="13" stroke-linecap="round" stroke-linejoin="round">
    <path d="M 216 526
             C 111 528 7 486 7 391
             C 7 296 121 208 281 208
             C 521 208 711 389 871 389
             C 1001 389 1171 210 1306 210
             C 1356 210 1399 228 1437 250"/>
  </g>
  <g id="letters" fill="#131210" fill-rule="nonzero">
    <path id="C" d="M 561.5 3 Q 529 0 499 0 Q 419 0 350 24 Q 281 48 229.5 91.5 Q 178 135 149.5 195.5 Q 121 256 121 328
             Q 121 422 169 494.5 Q 217 567 301 607.5 Q 385 648 493 648 Q 536 648 583.5 640 Q 631 632 679 615 Q 688 611 690.5 607.5
             Q 693 604 694 592 L 709 468 Q 709 465 704.5 464 Q 700 463 698 466 Q 657 550 610.5 588.5 Q 564 627 493 627
             Q 439 627 394 605.5 Q 349 584 316 544 Q 283 504 265 447.5 Q 247 391 247 321 Q 247 228 277.5 161 Q 308 94 361.5 57.5
             Q 415 21 483 21 Q 557 21 608.5 65 Q 660 109 688 190 Q 690 194 695 193 Q 700 192 700 189 L 687 50
             Q 686 39 683.5 34.5 Q 681 30 672 27 Q 652 18 623 12 Q 594 6 561.5 3 Z"/>
    <path id="V" d="M 1383 17 Q 1383 11 1380 11 Q 1355 11 1337.5 12.5 Q 1320 14 1292 14 Q 1249 14 1223 12.5 Q 1197 11 1168 11
             Q 1165 11 1165 17 Q 1165 23 1168 23 Q 1217 23 1232.5 56 Q 1248 89 1230 138 L 1100.2 481.2 L 927 112
             Q 908 71 922 47 Q 936 23 979 23 Q 982 23 982 17 Q 982 11 979 11 Q 963 11 941 12 Q 919 13 884 13.5
             Q 849 14 793 14 Q 768 14 756.5 13.5 Q 745 13 738.5 12 Q 732 11 720 11 Q 717 11 717 17 Q 717 23 720 23
             Q 743 23 761 41 Q 779 59 796 94 L 1051 635 Q 1053 639 1062.5 639 Q 1072 639 1073 635 L 1258 141
             Q 1278 87 1310.5 55 Q 1343 23 1380 23 Q 1383 23 1383 17 Z"/>
  </g>
  <g id="thread-over" fill="none" stroke="#B7713D" stroke-width="13" stroke-linecap="round" stroke-linejoin="round">
    <path d="M 145.5 520.4
             C 69 506.1 7 464.3 7 391
             C 7 296 121 208 281 208
             C 521 208 711 389 871 389
             C 947.6 389 1038 326.9 1127 275.9"/>
    <path d="M 1271.8 213.5
             C 1283.4 211.2 1294.8 210 1306 210
             C 1356 210 1399 228 1437 250"/>
  </g>
  <g id="gen" fill="#B7713D" fill-rule="nonzero">
    <path id="g" d="M 1472 318.9 Q 1472 334.2 1479 346.1 Q 1486 357.9 1498.6 364.4 Q 1511.1 370.9 1527.5 370.9 Q 1542.6 370.9 1555.6 363.9 Q 1568.6 356.9 1576.7 343
             Q 1584.8 329 1584.8 308.5 L 1584.8 191.5 L 1571.3 191.5 L 1571.3 219.7 Q 1571.2 219.5 1571.1 219.3 Q 1564.8 205.2 1553.5 197.1
             Q 1542.2 188.9 1526.7 188.9 Q 1510.8 188.9 1497.7 196.5 Q 1484.5 204.1 1476.7 218 Q 1469 231.9 1469 251.3 Q 1469 270.4 1476.7 284.5 Q 1484.5 298.5 1497.7 306.1
             Q 1510.8 313.7 1526.7 313.7 Q 1542.2 313.7 1553.5 305.5 Q 1564.8 297.4 1571.1 283.2 Q 1571.2 283 1571.3 282.8 L 1571.3 308.5 Q 1571.3 325.6 1564.9 336.6
             Q 1558.5 347.7 1548.6 352.9 Q 1538.6 358.2 1527.5 358.2 Q 1515 358.2 1505.5 353 Q 1496 347.8 1490.8 338.9 Q 1485.6 330.1 1485.6 318.9 L 1472 318.9
             Z
             M 1571.3 250.8 L 1571.3 250.8 Q 1571.3 250.8 1571.3 250.8 Q 1571.3 250.8 1571.3 250.8 Q 1571.3 265.3 1565.3 276.7 Q 1559.3 288.1 1549.5 294.5
             Q 1539.8 301 1528.6 301 Q 1516 301 1505.6 295.1 Q 1495.1 289.2 1488.9 278 Q 1482.7 266.8 1482.7 251.3 Q 1482.7 235.6 1488.9 224.5 Q 1495.1 213.4 1505.6 207.5
             Q 1516 201.6 1528.6 201.6 Q 1536.9 201.6 1544.6 205.4 Q 1552.3 209.2 1558.3 215.9 Q 1564.3 222.6 1567.8 231.5 Q 1571.3 240.4 1571.3 250.8 Z"/>
    <path id="e" d="M 1682.4 313.7 Q 1700.5 313.7 1713.8 306.2 Q 1727.2 298.8 1737.3 283.3 L 1726.3 276.3 Q 1718.2 289.1 1708 295 Q 1697.7 301 1684 301
             Q 1670.9 301 1661.2 294.7 Q 1651.5 288.4 1646.1 276.9 Q 1641.5 267.2 1640.9 254.6 L 1739 254.6 Q 1739.2 253.5 1739.3 251.6 Q 1739.3 249.7 1739.3 248.2
             Q 1739.3 230.7 1732.4 217.3 Q 1725.5 203.9 1713.2 196.4 Q 1700.9 188.9 1684.5 188.9 Q 1667.6 188.9 1654.7 196.8 Q 1641.7 204.7 1634.4 218.7 Q 1627.1 232.8 1627.1 251.1
             Q 1627.1 269.3 1634.2 283.4 Q 1641.3 297.5 1653.8 305.6 Q 1666.4 313.7 1682.4 313.7 Z
             M 1641.2 243 Q 1642.3 232.5 1646.4 224.2 Q 1651.9 213.2 1661.6 207 Q 1671.4 200.9 1684.5 200.9 Q 1696.1 200.9 1705.1 206.4 Q 1714.2 211.9 1719.5 221.4
             Q 1724.7 230.8 1724.7 243 L 1641.2 243 Z"/>
    <path id="n" d="M 1859.8 234.1 L 1859.8 311.1 L 1873.3 311.1 L 1873.3 232.6 Q 1873.3 212.7 1863.4 200.8 Q 1853.6 188.9 1834.8 188.9
             Q 1821.6 188.9 1811.6 196.1 Q 1801.6 203.4 1796.6 216.5 L 1796.6 191.5 L 1783.1 191.5 L 1783.1 311.1 L 1796.6 311.1
             L 1796.6 238.3 Q 1796.6 228 1801.1 219.7 Q 1805.6 211.4 1813.6 206.5 Q 1821.6 201.6 1831.7 201.6 Q 1846.3 201.6 1853 210.3 Q 1859.8 218.9 1859.8 234.1
             Z"/>
  </g>
</svg>
